<svg width="30" height="22" viewBox="0 0 30 22" fill="none" xmlns="http://www.w3.org/2000/svg">
<path d="M24.8919 6.93468L24.8918 6.93478L24.9006 6.94276L26.7385 8.59741C26.7385 8.59748 26.7386 8.59755 26.7387 8.59762C26.7628 8.6196 26.7755 8.65009 26.7755 8.67869V12.0324C26.7755 12.0922 26.7245 12.1433 26.6646 12.1433H21.6921C21.6323 12.1433 21.5812 12.0922 21.5812 12.0324V7.02322C21.5812 6.96338 21.6323 6.91235 21.6921 6.91235H24.8259C24.8591 6.91235 24.8805 6.92395 24.8919 6.93468ZM26.0538 11.9215H26.5538V11.4215V8.94747V8.72479L26.3882 8.57583L24.9221 7.25634L24.7795 7.12799H24.5877H22.303H21.803V7.62799V11.4215V11.9215H22.303H26.0538ZM3.80666 16.4795V16.9795H4.30666H5.53451C5.59435 16.9795 5.64539 17.0306 5.64539 17.0904C5.64539 17.1503 5.59435 17.2013 5.53451 17.2013H3.69579C3.63595 17.2013 3.58491 17.1503 3.58491 17.0904V14.8546C3.58491 14.7948 3.63595 14.7437 3.69579 14.7437C3.75562 14.7437 3.80666 14.7948 3.80666 14.8546V16.4795ZM1.85383 10.445V10.445H1.85095C1.79267 10.445 1.74502 10.3975 1.7461 10.337L1.74618 10.337V10.328C1.74618 10.2747 1.79065 10.2233 1.85706 10.2233H1.85706H1.85707H1.85708H1.85709H1.85709H1.8571H1.85711H1.85712H1.85713H1.85713H1.85714H1.85715H1.85716H1.85717H1.85718H1.85718H1.85719H1.8572H1.85721H1.85722H1.85723H1.85724H1.85725H1.85726H1.85726H1.85727H1.85728H1.85729H1.8573H1.8573H1.85731H1.85732H1.85733H1.85734H1.85735H1.85736H1.85737H1.85738H1.85739H1.8574H1.85741H1.85742H1.85743H1.85744H1.85745H1.85747H1.85748H1.85749H1.8575H1.85751H1.85753H1.85754H1.85755H1.85757H1.85758H1.85759H1.85761H1.85762H1.85763H1.85764H1.85765H1.85765H1.85766H1.85767H1.85768H1.85768H1.85769H1.8577H1.85771H1.85772H1.85772H1.85773H1.85774H1.85775H1.85776H1.85777H1.85778H1.85778H1.85779H1.8578H1.85781H1.85782H1.85783H1.85784H1.85785H1.85786H1.85786H1.85787H1.85788H1.85789H1.8579H1.85791H1.85792H1.85793H1.85794H1.85795H1.85796H1.85797H1.85798H1.85799H1.858H1.85801H1.85802H1.85803H1.85804H1.85805H1.85807H1.85808H1.85809H1.8581H1.85811H1.85812H1.85813H1.85814H1.85815H1.85817H1.85818H1.85819H1.8582H1.85821H1.85822H1.85824H1.85825H1.85826H1.85827H1.85828H1.8583H1.85831H1.85832H1.85833H1.85835H1.85836H1.85837H1.85839H1.8584H1.85841H1.85842H1.85844H1.85845H1.85846H1.85848H1.85849H1.85851H1.85852H1.85853H1.85855H1.85856H1.85858H1.85859H1.8586H1.85862H1.85863H1.85865H1.85866H1.85868H1.85869H1.85871H1.85872H1.85874H1.85875H1.85877H1.85878H1.8588H1.85881H1.85883H1.85884H1.85886H1.85888H1.85889H1.85891H1.85892H1.85894H1.85896H1.85897H1.85899H1.85901H1.85902H1.85904H1.85906H1.85907H1.85909H1.85911H1.85913H1.85914H1.85916H1.85918H1.8592H1.85921H1.85923H1.85925H1.85927H1.85929H1.85931H1.85932H1.85934H1.85936H1.85938H1.8594H1.85942H1.85944H1.85946H1.85948H1.85949H1.85951H1.85953H1.85955H1.85957H1.85959H1.85961H1.85963H1.85965H1.85967H1.85969H1.85971H1.85973H1.85976H1.85978H1.8598H1.85982H1.85984H1.85986H1.85988H1.8599H1.85993H1.85995H1.85997H1.85999H1.86001H1.86003H1.86006H1.86008H1.8601H1.86012H1.86015H1.86017H1.86019H1.86022H1.86024H1.86026L1.86028 10.2233L1.86031 10.2233H1.86033H1.86036H1.86038H1.8604H1.86043H1.86045H1.86048H1.8605H1.86052H1.86055H1.86057H1.8606H1.86062H1.86065H1.86067H1.8607H1.86072H1.86075H1.86078H1.8608H1.86083H1.86085H1.86088H1.86091H1.86093H1.86096H1.86099H1.86101H1.86104H1.86107H1.86109H1.86112H1.86115H1.86118H1.8612H1.86123H1.86126H1.86129H1.86131H1.86134H1.86137H1.8614H1.86143H1.86146H1.86149H1.86151H1.86154H1.86157H1.8616H1.86163H1.86166H1.86169H1.86172H1.86175H1.86178H1.86181H1.86184H1.86187H1.8619H1.86193H1.86196H1.862H1.86203H1.86206H1.86209H1.86212H1.86215H1.86218H1.86222H1.86225H1.86228H1.86231H1.86234H1.86238H1.86241H1.86244H1.86248H1.86251H1.86254H1.86258H1.86261H1.86264H1.86268H1.86271H1.86274H1.86278H1.86281H1.86285H1.86288H1.86292H1.86295H1.86299H1.86302H1.86306H1.86309H1.86313H1.86316L9.27017 10.266V10.266H9.27306C9.33129 10.266 9.3789 10.3134 9.37791 10.3739C9.37678 10.4359 9.32589 10.4873 9.26171 10.4878C9.26142 10.4878 9.26113 10.4878 9.26084 10.4878L1.85383 10.445ZM29.455 7.73206L29.4555 7.73247C29.4739 7.74763 29.4965 7.78236 29.4999 7.83342L29.4511 17.0817V17.0843C29.4511 17.1376 29.4067 17.1891 29.3403 17.1891H28.1002C28.0403 17.1891 27.9893 17.138 27.9893 17.0782C27.9893 17.0184 28.0403 16.9673 28.1002 16.9673H28.7355H29.2329L29.2355 16.4699L29.2782 8.10703L29.2795 7.87036L29.0972 7.71939L25.1143 4.42068L24.9755 4.30575H24.7954H19.8717H19.3717V4.80575V16.4795V16.9795H19.8717H21.0996C21.1594 16.9795 21.2104 17.0306 21.2104 17.0904C21.2104 17.1503 21.1594 17.2013 21.0996 17.2013H13.6408C13.581 17.2013 13.5299 17.1503 13.5299 17.0904C13.5299 17.0306 13.581 16.9795 13.6408 16.9795H18.65H19.15V16.4795V1.99573V1.49573H18.65H4.30666H3.80666V1.99573V5.85646C3.80666 5.91629 3.75562 5.96733 3.69579 5.96733C3.63595 5.96733 3.58491 5.91629 3.58491 5.85646V1.38486C3.58491 1.32502 3.63595 1.27399 3.69579 1.27399H19.2547C19.3146 1.27399 19.3656 1.32502 19.3656 1.38486V3.58401V4.08401H19.8656H25.0092C25.0398 4.08401 25.0607 4.0925 25.08 4.10862L25.0812 4.10958L29.455 7.73206ZM22.2532 18.4771C22.2532 17.8826 22.4894 17.3244 22.9244 16.889C23.3567 16.4623 23.9267 16.2282 24.5266 16.2282C25.7488 16.2282 26.7511 17.2339 26.7511 18.4771C26.7511 19.7203 25.7488 20.726 24.5266 20.726C23.9283 20.726 23.3628 20.493 22.9223 20.0631C22.485 19.6304 22.2532 19.074 22.2532 18.4771ZM22.475 18.4771C22.475 19.5917 23.4152 20.5043 24.5266 20.5043C25.6413 20.5043 26.5293 19.5883 26.5293 18.4771C26.5293 17.3659 25.6413 16.4499 24.5266 16.4499C23.4152 16.4499 22.475 17.3625 22.475 18.4771ZM8.00685 16.889C8.4392 16.4623 9.00913 16.2282 9.60904 16.2282C10.8313 16.2282 11.8335 17.2339 11.8335 18.4771C11.8335 19.7203 10.8313 20.726 9.60904 20.726C9.01076 20.726 8.44533 20.493 8.0048 20.0631C7.56751 19.6304 7.33568 19.0741 7.33568 18.4771C7.33568 17.8826 7.57191 17.3244 8.00685 16.889ZM7.55742 18.4771C7.55742 19.5917 8.49763 20.5043 9.60904 20.5043C10.7238 20.5043 11.6118 19.5883 11.6118 18.4771C11.6118 17.3659 10.7238 16.4499 9.60904 16.4499C8.49763 16.4499 7.55742 17.3625 7.55742 18.4771ZM8.02077 13.0394C8.08061 13.0394 8.13164 13.0904 8.13164 13.1503C8.13164 13.213 8.08388 13.2612 8.02077 13.2612H0.610874C0.551035 13.2612 0.5 13.2101 0.5 13.1503C0.5 13.0904 0.551035 13.0394 0.610874 13.0394H8.02077ZM10.507 7.67166H3.09713C3.03729 7.67166 2.98626 7.62063 2.98626 7.56079C2.98626 7.50095 3.03729 7.44992 3.09713 7.44992H10.507C10.5669 7.44992 10.6179 7.50095 10.6179 7.56079C10.6179 7.62063 10.5669 7.67166 10.507 7.67166Z" fill="black" stroke="black"/>
</svg>
